<svg width="135" height="36" viewBox="0 0 135 36" fill="none" xmlns="http://www.w3.org/2000/svg"><path d="M1.815 18c0-7.817 6.356-14.174 14.174-14.174 7.817 0 14.174 6.357 14.174 14.174 0 7.817-6.357 14.174-14.174 14.174C8.17 32.174 1.815 25.817 1.815 18zM0 18c0 8.822 7.178 16 16 16s16-7.178 16-16S24.81 2 15.989 2C7.167 2 0 9.178 0 18z" fill="#003486"/><path d="M4.758 18c0 1.678.376 3.265 1.027 4.691l1.62-11.937a11.2 11.2 0 0 0-2.647 7.235M19.264 7.26a11.1 11.1 0 0 0-3.275-.49c-.947 0-1.86.114-2.739.342l3.07 10.18L19.264 7.26zM24.902 11.176l1.312 11.446c.64-1.415.993-2.978.993-4.622 0-2.567-.867-4.93-2.316-6.824" fill="#003486"/><path d="M17.529 28.454l-2.568-.046-3.8-12.36-.993 11.561a11.207 11.207 0 0 0 5.82 1.62c2.351 0 4.53-.718 6.334-1.95l-.936-11.675-3.857 12.861v-.011zM48.847 27.215l-7.121-14.893h-.057L40.916 24.9c-.08 1.426.98 1.735 2.236 1.791v.525h-5.82v-.524c2.043 0 2.294-.446 2.43-2.99l.674-10.876c.114-1.85.057-2.351-1.677-2.465v-.503h4.222l6.733 14.083 6.71-14.083h4.11v.503c-1.37.114-1.907.136-1.85 1.084l.89 12.667c.172 2.568.389 2.568 2.431 2.568v.525h-7.178v-.525c1.312 0 2.602-.365 2.488-1.849l-.81-12.519h-.057l-6.962 14.893h-.639v.011zM67.884 22.024c-.537.308-.982.502-1.655.787-1.7.696-2.351.982-2.351 2.123 0 1.004.81 1.655 1.655 1.655.445 0 .787-.137 2.35-1.233v-3.332zm-5.535-2.545c-.057-.171-.08-.251-.08-.388 0-.982 2.316-3.241 4.131-3.241.845 0 2.157.388 2.933 1.483.422.582.422.947.422 2.408v3.743c0 2.237 0 2.74.73 2.74.309 0 .674-.023 1.37-.617l.137.422c-1.506 1.233-2.294 1.541-2.762 1.541-1.14 0-1.255-1.255-1.29-1.7-1.928 1.597-2.487 1.7-3.24 1.7-1.62 0-2.602-.924-2.602-2.294 0-1.7 1.506-2.294 3.298-2.739.582-.137 1.506-.48 2.488-1.061v-2.214c0-.788 0-1.233-.48-1.792-.365-.445-.947-.81-1.563-.81-.924 0-1.735.787-1.735 1.37 0 .17.023.273.137.536l-1.906.924.012-.011z" fill="#003486"/><path d="M75.13 24.786c0 1.54.365 1.906 1.872 1.906v.536h-5.615v-.536c1.232 0 1.871-.674 1.871-1.758v-5.866c0-1.038-.114-1.232-.844-1.37l-.947-.193v-.445l3.218-1.176h.445v2.18c1.872-1.176 3.435-2.203 4.805-2.203 1.905 0 2.99 1.393 2.99 4.189 0 3.72-.194 4.439-.229 5.535-.022.753.422 1.118 1.564 1.118h.616v.536h-6.014v-.536c.81-.023 1.29-.228 1.598-.525.536-.525.593-2.568.593-6.288 0-2.237-1.096-2.933-2.203-2.933-.89 0-2.26.787-3.72 1.792v6.06-.023z" fill="#003486"/><path d="M87.625 25.014c0 1.312.365 1.677 1.815 1.677v.537h-5.592v-.537c1.54-.08 1.906-.616 1.906-2.157V11.148c0-.617-.115-.833-.697-.925l-1.198-.17v-.48l3.333-1.141h.445v9.175c1.848-1.095 3.184-1.757 4.61-1.757 2.157 0 3.104 1.346 3.104 4.165 0 2.545-.057 4.108-.137 5.615.057.753.48 1.061 2.123 1.061v.537H91.3v-.537c.73 0 1.255-.137 1.563-.445.502-.502.617-1.7.617-5.866 0-2.99-1.62-3.378-2.545-3.378-.925 0-1.929.445-3.299 1.313v6.71l-.01-.011zM104.642 19.387c-.308-1.814-1.427-3.024-2.762-3.024-.924 0-2.316.422-2.967 3.024h5.729zm-5.809.73c-.057.423-.114.81-.114 1.176 0 2.91 2.043 4.862 4.245 4.862 1.393 0 2.488-.56 3.55-1.815l.308.331c-1.176 1.484-2.933 2.876-4.976 2.876-2.739 0-4.862-2.488-4.862-5.73 0-2.966 1.986-5.98 5.398-5.98 3.778 0 3.687 2.717 4.611 3.63v.64h-8.16v.01z" fill="#003486"/><path d="M109.926 9.412c.673 0 1.232.48 1.232 1.061 0 .582-.559 1.062-1.232 1.062-.674 0-1.199-.48-1.199-1.062 0-.582.525-1.06 1.199-1.06zm1.141 15.68c0 .982.525 1.598 2.008 1.598v.525h-6.208v-.525c1.701 0 2.317-.559 2.317-2.043v-5.614c0-1.085-.137-1.233-.867-1.37l-1.313-.25v-.446l3.629-1.255h.422v9.392l.012-.011z" fill="#003486"/><path d="M116.592 24.956c0 1.45.388 1.735 1.951 1.735v.525h-5.809v-.525c1.621 0 1.986-.73 1.986-2.157v-5.478c0-1.095-.171-1.347-.81-1.426l-1.096-.137v-.48l3.355-1.175h.423v2.237c2.008-1.427 3.857-2.237 4.975-2.237 1.37 0 2.374.867 2.66 2.237 1.871-1.176 3.583-2.237 4.952-2.237 2.009 0 2.796 1.54 2.796 4.222 0 1.792 0 3.664-.079 5.364 0 .582.331 1.256 1.483 1.256h.89v.524h-6.288v-.524h.251c.811 0 1.176-.137 1.427-.389.422-.422.445-2.042.445-3.97v-2.18c0-2.158-.731-3.185-2.1-3.185-.867 0-1.986.422-3.72 1.564v6.425c0 1.404.331 1.735 1.734 1.735v.524h-5.729v-.524c1.564 0 2.123-.56 2.123-2.157v-5.17c0-1.758-1.096-2.408-2.066-2.408-.787 0-1.848.365-3.743 1.62v6.368l-.011.023z" fill="#003486"/></svg>